<svg xmlns="http://www.w3.org/2000/svg" width="30" height="25" fill="none" viewBox="0 0 30 25"><path fill="#333" d="M30 2.96c-1.104.502-2.29.84-3.535.993A6.3 6.3 0 0 0 29.171.461a12.2 12.2 0 0 1-3.908 1.532A6.08 6.08 0 0 0 20.77 0c-3.974 0-6.894 3.802-5.996 7.748C9.66 7.486 5.125 4.973 2.089 1.155.476 3.99 1.253 7.702 3.993 9.58a6 6 0 0 1-2.787-.79c-.067 2.925 1.977 5.66 4.937 6.269a6 6 0 0 1-2.78.107c.782 2.508 3.055 4.332 5.75 4.383A12.16 12.16 0 0 1 0 22.165 17.1 17.1 0 0 0 9.435 25c11.428 0 17.884-9.897 17.494-18.773A12.7 12.7 0 0 0 30 2.96"/></svg>